<svg xmlns="http://www.w3.org/2000/svg" viewBox="0 0 512 512" role="img" aria-label="Service">
  <defs>
    <linearGradient id="bg" x1="64" y1="56" x2="448" y2="456" gradientUnits="userSpaceOnUse">
      <stop offset="0" stop-color="#172033"/>
      <stop offset=".52" stop-color="#0f172a"/>
      <stop offset="1" stop-color="#020617"/>
    </linearGradient>
    <linearGradient id="cyan" x1="122" y1="112" x2="396" y2="392" gradientUnits="userSpaceOnUse">
      <stop offset="0" stop-color="#a5f3fc"/>
      <stop offset=".55" stop-color="#38bdf8"/>
      <stop offset="1" stop-color="#0ea5e9"/>
    </linearGradient>
    <linearGradient id="teal" x1="164" y1="132" x2="386" y2="382" gradientUnits="userSpaceOnUse">
      <stop offset="0" stop-color="#99f6e4"/>
      <stop offset="1" stop-color="#14b8a6"/>
    </linearGradient>
    <filter id="shadow" x="-20%" y="-20%" width="140%" height="140%">
      <feDropShadow dx="0" dy="18" stdDeviation="18" flood-color="#000" flood-opacity=".28"/>
    </filter>
  </defs>
  <rect width="512" height="512" rx="112" fill="url(#bg)"/>
  <path d="M338 126c-36-22-82-28-126-13-73 24-116 97-98 170 19 77 96 125 174 107 39-9 72-32 93-62" fill="none" stroke="url(#cyan)" stroke-width="54" stroke-linecap="round" filter="url(#shadow)"/>
  <path d="M179 322c35-66 83-105 151-118 34-6 61-20 80-42" fill="none" stroke="url(#teal)" stroke-width="40" stroke-linecap="round"/>
  <circle cx="181" cy="322" r="34" fill="#f8fafc"/>
  <circle cx="330" cy="204" r="34" fill="#f8fafc"/>
  <circle cx="410" cy="162" r="26" fill="#22d3ee"/>
  <path d="M175 322c36-68 86-108 155-119" fill="none" stroke="#020617" stroke-width="12" stroke-linecap="round" opacity=".3"/>
</svg>
